<svg version="1.1" id="Laag_1" xmlns="http://www.w3.org/2000/svg" xmlns:xlink="http://www.w3.org/1999/xlink" x="0px" y="0px"
	 viewBox="0 0 135 34" style="enable-background:new 0 0 135 34;" xml:space="preserve">
<style type="text/css">
	.st0{clip-path:url(#SVGID_1_);fill:#CA4280;}
	.st1{fill:#FFFFFF;}
	.st2{font-family:'Audiowide-Regular';}
	.st3{font-size:12.2745px;}
	.st4{font-size:10.5952px;}
	.st5{fill:#CA4280;}
	.st6{fill:#1D1D1B;}
</style>
<title>Asset 47</title>
<g>
	<defs>
		<path id="SVGID_3_" d="M11.3,15.6l1.9,1.1l1.9-1.1l-1.9-1.1L11.3,15.6z M12.7,19.8v-2.2l-1.9-1.1v2.2L12.7,19.8z M15.1,5l-1.9-1.1
			L11.3,5l1.9,1.1L15.1,5z M13.8,9.2l1.9-1.1V6L13.8,7V9.2z M10.8,8.1l1.9,1.1V7L10.8,6V8.1z M13.8,30.5l1.9-1.1v-2.2l-1.9,1.1V30.5
			z M10.8,27.2v2.2l1.9,1.1v-2.2L10.8,27.2z M13.2,25.1l-1.9,1.1l1.9,1.1l1.9-1.1L13.2,25.1z M23,25.2l1.9-1.1v-2.2L23,23V25.2z
			 M20,21.9v2.2l1.9,1.1V23L20,21.9z M22.4,19.8l-1.9,1.1l1.9,1.1l1.9-1.1L22.4,19.8z M4.6,25.2l1.9-1.1v-2.2L4.6,23V25.2z
			 M1.6,21.9v2.2l1.9,1.1V23L1.6,21.9z M4,19.8l-1.9,1.1L4,22l1.9-1.1L4,19.8z M7.1,14.4l-2.5,1.4v3l2.7,1.6
			c0.2,0.1,0.3,0.3,0.3,0.5v3.2l2.6,1.5l2.5-1.4v-3L10,19.6c-0.2-0.1-0.3-0.3-0.3-0.5v-3.2L7.1,14.4z M4.6,14.5l1.9-1.1v-2.2
			l-1.9,1.1V14.5z M1.6,11.3v2.2l1.9,1.1v-2.2L1.6,11.3z M4,9.2l-1.9,1.1L4,11.4l1.9-1.1L4,9.2z M18.8,13.4v-2.8l-2.6-1.5l-2.7,1.6
			c-0.1,0.1-0.2,0.1-0.3,0.1c-0.1,0-0.2,0-0.3-0.1l-2.7-1.6l-2.6,1.5v2.8l2.6,1.5l2.7-1.6c0.2-0.1,0.4-0.1,0.6,0l2.7,1.6L18.8,13.4z
			 M21.8,15.8l-2.5-1.4l-2.6,1.5v3.2h0c0,0.2-0.1,0.4-0.3,0.5l-2.7,1.6v3l2.5,1.4l2.6-1.5v-3.2h0c0-0.1,0-0.2,0.1-0.3
			c0.1-0.1,0.1-0.2,0.2-0.2l2.7-1.6V15.8z M19.4,9.6l2.7-1.6c0.2-0.1,0.4-0.1,0.6,0l3,1.7c0.2,0.1,0.3,0.3,0.3,0.5v3.5h0
			c0,0.2-0.1,0.4-0.3,0.5L23,15.8v3l2.7,1.6c0.2,0.1,0.3,0.3,0.3,0.5v3.5h0c0,0.2-0.1,0.4-0.3,0.5l-3,1.7c-0.1,0.1-0.2,0.1-0.3,0.1
			c-0.1,0-0.2,0-0.3-0.1L19.4,25l-2.6,1.5v3.2h0c0,0.2-0.1,0.4-0.3,0.5l-3,1.7C13.5,32,13.3,32,13.2,32c-0.1,0-0.2,0-0.3-0.1l-3-1.7
			c-0.2-0.1-0.3-0.3-0.3-0.5v-3.2L7.1,25l-2.7,1.6c-0.1,0.1-0.2,0.1-0.3,0.1c-0.1,0-0.2,0-0.3-0.1l-3-1.7c-0.2-0.1-0.3-0.3-0.3-0.5
			v-3.5h0c0-0.1,0-0.2,0.1-0.3c0.1-0.1,0.1-0.2,0.2-0.2l2.7-1.6v-3l-2.7-1.6c-0.2-0.1-0.3-0.3-0.3-0.5v-3.5h0v0l0,0
			c0-0.1,0-0.1,0-0.2l0,0l0,0l0,0l0,0l0,0l0,0l0,0l0,0l0,0c0-0.1,0.1-0.1,0.1-0.2l0,0l0,0l0,0l0,0l0,0l0,0l0,0l0,0l0,0l0,0l0,0l0,0
			l0,0l0,0l0,0l0,0l0,0l0,0l0,0l0,0l3-1.7C3.9,8,4.1,7.9,4.3,8l2.7,1.6l2.6-1.5V5c0-0.2,0.1-0.4,0.3-0.5l3-1.7
			c0.2-0.1,0.4-0.1,0.6,0l3,1.7c0,0,0.1,0.1,0.1,0.1l0,0l0,0l0,0l0,0l0,0l0,0l0,0l0,0l0,0l0,0l0,0c0,0,0,0,0,0l0,0c0,0,0,0,0,0.1
			l0,0c0,0,0,0,0,0l0,0l0,0l0,0l0,0l0,0c0,0.1,0,0.1,0,0.2l0,0l0,0v0v0h0v3.2L19.4,9.6z M23,14.5l1.9-1.1v-2.2L23,12.4V14.5z
			 M20,11.3v2.2l1.9,1.1v-2.2L20,11.3z M22.4,9.2l-1.9,1.1l1.9,1.1l1.9-1.1L22.4,9.2z M13.8,17.7v2.2l1.9-1.1v-2.2L13.8,17.7z"/>
	</defs>
	<use xlink:href="#SVGID_3_"  style="overflow:visible;fill:#CA4280;"/>
	<clipPath id="SVGID_1_">
		<use xlink:href="#SVGID_3_"  style="overflow:visible;"/>
	</clipPath>
	<rect x="0.4" y="2.6" class="st0" width="25.6" height="29.4"/>
</g>
<text transform="matrix(0.9806 0 0 1 29.8659 27.1961)" class="st1 st2 st3">SDX - MASTER</text>
<text transform="matrix(0.9806 0 0 1 30.1694 14.5416)"><tspan x="0" y="0" class="st1 st2 st4">SMART</tspan><tspan x="41.1" y="0" class="st5 st2 st4"> DEX</tspan><tspan x="67.5" y="0" class="st6 st2 st4"> </tspan><tspan x="70.4" y="0" class="st1 st2 st4">CHAIN</tspan></text>
</svg>