<?xml version="1.0" encoding="UTF-8"?>
<svg width="135px" height="34px" viewBox="0 0 135 34" version="1.1" xmlns="http://www.w3.org/2000/svg" xmlns:xlink="http://www.w3.org/1999/xlink">
    <!-- Generator: Sketch 50.2 (55047) - http://www.bohemiancoding.com/sketch -->
    <title>Logo TMmaster</title>
    <desc>Created with Sketch.</desc>
    <defs></defs>
    <g id="Page-1" stroke="none" stroke-width="1" fill="none" fill-rule="evenodd">
        <g id="Home" transform="translate(-167.000000, -13.000000)">
            <g id="Logo-TMmaster" transform="translate(167.000000, 13.000000)">
                <path d="M46.686,12.364 C46.8446675,12.5133341 46.924,12.7093321 46.924,12.952 C46.924,13.1946679 46.8446675,13.3883326 46.686,13.533 C46.5273325,13.6776674 46.3220013,13.75 46.07,13.75 L43.872,13.75 L43.872,21.086 C43.872,21.3286679 43.7833342,21.5316658 43.606,21.695 C43.4286658,21.8583341 43.2093346,21.94 42.948,21.94 C42.6866654,21.94 42.4720008,21.8583341 42.304,21.695 C42.1359992,21.5316658 42.052,21.3286679 42.052,21.086 L42.052,13.75 L39.854,13.75 C39.6019987,13.75 39.3966675,13.6753341 39.238,13.526 C39.0793325,13.3766659 39,13.1806679 39,12.938 C39,12.7046655 39.0816659,12.5133341 39.245,12.364 C39.4083342,12.2146659 39.6113321,12.14 39.854,12.14 L46.07,12.14 C46.3220013,12.14 46.5273325,12.2146659 46.686,12.364 Z M56.514,19.581 C56.1033313,20.3510038 55.5363369,20.9599978 54.813,21.408 C54.089663,21.8560022 53.2753379,22.08 52.37,22.08 C51.4646621,22.08 50.6503369,21.8560022 49.927,21.408 C49.2036631,20.9599978 48.639002,20.3510038 48.233,19.581 C47.826998,18.8109962 47.624,17.9640046 47.624,17.04 C47.624,16.1159954 47.826998,15.2690038 48.233,14.499 C48.639002,13.7289961 49.2036631,13.1200022 49.927,12.672 C50.6503369,12.2239978 51.4646621,12 52.37,12 C53.2753379,12 54.089663,12.2239978 54.813,12.672 C55.5363369,13.1200022 56.1033313,13.7289961 56.514,14.499 C56.9246687,15.2690038 57.13,16.1159954 57.13,17.04 C57.13,17.9640046 56.9246687,18.8109962 56.514,19.581 Z M54.932,15.339 C54.6799987,14.8303308 54.3300022,14.4266682 53.882,14.128 C53.4339978,13.8293318 52.9300028,13.68 52.37,13.68 C51.8006638,13.68 51.2943355,13.8269985 50.851,14.121 C50.4076644,14.4150015 50.0623346,14.8186641 49.815,15.332 C49.5676654,15.8453359 49.444,16.4146635 49.444,17.04 C49.444,17.6653365 49.5676654,18.2346641 49.815,18.748 C50.0623346,19.2613359 50.4076644,19.6649985 50.851,19.959 C51.2943355,20.2530015 51.8006638,20.4 52.37,20.4 C52.9300028,20.4 53.4339978,20.2506682 53.882,19.952 C54.3300022,19.6533318 54.6799987,19.2496692 54.932,18.741 C55.1840013,18.2323308 55.31,17.6653365 55.31,17.04 C55.31,16.4146635 55.1840013,15.8476692 54.932,15.339 Z M67.847,12.371 C68.0196675,12.5343341 68.106,12.7373321 68.106,12.98 L68.106,21.086 C68.106,21.3286679 68.0266675,21.5316658 67.868,21.695 C67.7093325,21.8583341 67.4993346,21.94 67.238,21.94 C66.9766654,21.94 66.7643341,21.8606675 66.601,21.702 C66.4376659,21.5433325 66.356,21.3380013 66.356,21.086 L66.356,15.444 L64.046,18.972 C63.9526662,19.0840006 63.8453339,19.1749996 63.724,19.245 C63.6026661,19.3150003 63.4766673,19.3453334 63.346,19.336 C63.2246661,19.3453334 63.1033339,19.3150003 62.982,19.245 C62.8606661,19.1749996 62.7533338,19.0840006 62.66,18.972 L60.35,15.318 L60.35,21.086 C60.35,21.3380013 60.2753341,21.5433325 60.126,21.702 C59.9766659,21.8606675 59.7806679,21.94 59.538,21.94 C59.3046655,21.94 59.1133341,21.8583341 58.964,21.695 C58.8146659,21.5316658 58.74,21.3286679 58.74,21.086 L58.74,12.98 C58.74,12.7466655 58.8263325,12.5460008 58.999,12.378 C59.1716675,12.2099992 59.3793321,12.126 59.622,12.126 C59.7620007,12.126 59.9019993,12.1609996 60.042,12.231 C60.1820007,12.3010004 60.289333,12.3919994 60.364,12.504 L63.416,17.194 L66.552,12.504 C66.626667,12.3919994 66.7269994,12.3010004 66.853,12.231 C66.9790006,12.1609996 67.1073327,12.126 67.238,12.126 C67.4713345,12.126 67.6743325,12.2076658 67.847,12.371 Z M78.606,19.581 C78.1953313,20.3510038 77.6283369,20.9599978 76.905,21.408 C76.181663,21.8560022 75.3673379,22.08 74.462,22.08 C73.5566621,22.08 72.7423369,21.8560022 72.019,21.408 C71.295663,20.9599978 70.731002,20.3510038 70.325,19.581 C69.918998,18.8109962 69.716,17.9640046 69.716,17.04 C69.716,16.1159954 69.918998,15.2690038 70.325,14.499 C70.731002,13.7289961 71.295663,13.1200022 72.019,12.672 C72.7423369,12.2239978 73.5566621,12 74.462,12 C75.3673379,12 76.181663,12.2239978 76.905,12.672 C77.6283369,13.1200022 78.1953313,13.7289961 78.606,14.499 C79.0166687,15.2690038 79.222,16.1159954 79.222,17.04 C79.222,17.9640046 79.0166687,18.8109962 78.606,19.581 Z M77.024,15.339 C76.7719987,14.8303308 76.4220022,14.4266682 75.974,14.128 C75.5259978,13.8293318 75.0220028,13.68 74.462,13.68 C73.8926638,13.68 73.3863355,13.8269985 72.943,14.121 C72.4996644,14.4150015 72.1543346,14.8186641 71.907,15.332 C71.6596654,15.8453359 71.536,16.4146635 71.536,17.04 C71.536,17.6653365 71.6596654,18.2346641 71.907,18.748 C72.1543346,19.2613359 72.4996644,19.6649985 72.943,19.959 C73.3863355,20.2530015 73.8926638,20.4 74.462,20.4 C75.0220028,20.4 75.5259978,20.2506682 75.974,19.952 C76.4220022,19.6533318 76.7719987,19.2496692 77.024,18.741 C77.2760013,18.2323308 77.402,17.6653365 77.402,17.04 C77.402,16.4146635 77.2760013,15.8476692 77.024,15.339 Z M89.939,12.371 C90.1116675,12.5343341 90.198,12.7373321 90.198,12.98 L90.198,21.086 C90.198,21.3286679 90.1186675,21.5316658 89.96,21.695 C89.8013325,21.8583341 89.5913346,21.94 89.33,21.94 C89.0686654,21.94 88.8563341,21.8606675 88.693,21.702 C88.5296658,21.5433325 88.448,21.3380013 88.448,21.086 L88.448,15.444 L86.138,18.972 C86.0446662,19.0840006 85.9373339,19.1749996 85.816,19.245 C85.6946661,19.3150003 85.5686673,19.3453334 85.438,19.336 C85.3166661,19.3453334 85.1953339,19.3150003 85.074,19.245 C84.9526661,19.1749996 84.8453338,19.0840006 84.752,18.972 L82.442,15.318 L82.442,21.086 C82.442,21.3380013 82.3673341,21.5433325 82.218,21.702 C82.0686659,21.8606675 81.8726679,21.94 81.63,21.94 C81.3966655,21.94 81.2053341,21.8583341 81.056,21.695 C80.9066659,21.5316658 80.832,21.3286679 80.832,21.086 L80.832,12.98 C80.832,12.7466655 80.9183325,12.5460008 81.091,12.378 C81.2636675,12.2099992 81.4713321,12.126 81.714,12.126 C81.8540007,12.126 81.9939993,12.1609996 82.134,12.231 C82.2740007,12.3010004 82.381333,12.3919994 82.456,12.504 L85.508,17.194 L88.644,12.504 C88.718667,12.3919994 88.8189994,12.3010004 88.945,12.231 C89.0710006,12.1609996 89.1993327,12.126 89.33,12.126 C89.5633345,12.126 89.7663325,12.2076658 89.939,12.371 Z M100.054,21.184 C100.054,21.4266679 99.9746675,21.6249992 99.816,21.779 C99.6573325,21.9330008 99.4753344,22.01 99.27,22.01 C99.1019992,22.01 98.950334,21.9586672 98.815,21.856 C98.679666,21.7533328 98.574667,21.6133342 98.5,21.436 L97.772,19.742 L93.6,19.742 L92.872,21.45 C92.8066663,21.6273342 92.706334,21.7649995 92.571,21.863 C92.435666,21.9610005 92.2886675,22.01 92.13,22.01 C91.8873321,22.01 91.7030006,21.9446673 91.577,21.814 C91.4509994,21.6833327 91.388,21.5060011 91.388,21.282 C91.388,21.1979996 91.4019999,21.1093338 91.43,21.016 L94.916,12.644 C94.990667,12.4573324 95.1026659,12.3126672 95.252,12.21 C95.4013341,12.1073328 95.5693324,12.0653332 95.756,12.084 C95.9240008,12.084 96.0803326,12.1329995 96.225,12.231 C96.3696674,12.3290005 96.4746663,12.4666658 96.54,12.644 L99.984,20.848 C100.030667,20.9693339 100.054,21.0813328 100.054,21.184 Z M94.286,18.132 L97.086,18.132 L95.672,14.856 L94.286,18.132 Z M102.602,21.828 C102.079331,21.6599992 101.589336,21.3753353 101.132,20.974 C100.879999,20.7499989 100.754,20.502668 100.754,20.232 C100.754,20.0173323 100.833333,19.8283341 100.992,19.665 C101.150667,19.5016659 101.341999,19.42 101.566,19.42 C101.743334,19.42 101.901999,19.4759994 102.042,19.588 C102.415335,19.8960015 102.779332,20.1199993 103.134,20.26 C103.488668,20.4000007 103.908664,20.47 104.394,20.47 C104.916669,20.47 105.366998,20.3533345 105.745,20.12 C106.123002,19.8866655 106.312,19.5973351 106.312,19.252 C106.312,18.8319979 106.125335,18.5030012 105.752,18.265 C105.378665,18.0269988 104.786004,17.8473339 103.974,17.726 C101.92999,17.4273318 100.908,16.4753414 100.908,14.87 C100.908,14.2819971 101.061998,13.7710022 101.37,13.337 C101.678002,12.9029978 102.097997,12.5716678 102.63,12.343 C103.162003,12.1143322 103.754663,12 104.408,12 C104.996003,12 105.548997,12.0886658 106.067,12.266 C106.585003,12.4433342 107.016665,12.6766652 107.362,12.966 C107.632668,13.1806677 107.768,13.4279986 107.768,13.708 C107.768,13.9226677 107.688667,14.1116658 107.53,14.275 C107.371333,14.4383341 107.184668,14.52 106.97,14.52 C106.829999,14.52 106.704001,14.4780004 106.592,14.394 C106.349332,14.197999 106.011002,14.0183341 105.577,13.855 C105.142998,13.6916658 104.753335,13.61 104.408,13.61 C103.819997,13.61 103.365002,13.7196656 103.043,13.939 C102.720998,14.1583344 102.56,14.4453316 102.56,14.8 C102.56,15.2013353 102.725665,15.5046656 103.057,15.71 C103.388335,15.9153344 103.908663,16.0833327 104.618,16.214 C105.420671,16.3540007 106.062331,16.5336656 106.543,16.753 C107.023669,16.9723344 107.385332,17.2709981 107.628,17.649 C107.870668,18.0270019 107.992,18.5286635 107.992,19.154 C107.992,19.7420029 107.826335,20.2576645 107.495,20.701 C107.163665,21.1443356 106.722669,21.4849988 106.172,21.723 C105.621331,21.9610012 105.02867,22.08 104.394,22.08 C103.721997,22.08 103.124669,21.9960008 102.602,21.828 Z M116.658,12.364 C116.816667,12.5133341 116.896,12.7093321 116.896,12.952 C116.896,13.1946679 116.816667,13.3883326 116.658,13.533 C116.499333,13.6776674 116.294001,13.75 116.042,13.75 L113.844,13.75 L113.844,21.086 C113.844,21.3286679 113.755334,21.5316658 113.578,21.695 C113.400666,21.8583341 113.181335,21.94 112.92,21.94 C112.658665,21.94 112.444001,21.8583341 112.276,21.695 C112.107999,21.5316658 112.024,21.3286679 112.024,21.086 L112.024,13.75 L109.826,13.75 C109.573999,13.75 109.368667,13.6753341 109.21,13.526 C109.051333,13.3766659 108.972,13.1806679 108.972,12.938 C108.972,12.7046655 109.053666,12.5133341 109.217,12.364 C109.380334,12.2146659 109.583332,12.14 109.826,12.14 L116.042,12.14 C116.294001,12.14 116.499333,12.2146659 116.658,12.364 Z M124.519,20.575 C124.682334,20.7383342 124.764,20.9273323 124.764,21.142 C124.764,21.3753345 124.682334,21.5666659 124.519,21.716 C124.355666,21.8653341 124.152668,21.94 123.91,21.94 L119.22,21.94 C118.977332,21.94 118.774334,21.8583341 118.611,21.695 C118.447666,21.5316658 118.366,21.3286679 118.366,21.086 L118.366,12.994 C118.366,12.7513321 118.447666,12.5483341 118.611,12.385 C118.774334,12.2216658 118.977332,12.14 119.22,12.14 L123.91,12.14 C124.152668,12.14 124.355666,12.2169992 124.519,12.371 C124.682334,12.5250008 124.764,12.7233321 124.764,12.966 C124.764,13.1993345 124.684667,13.3883326 124.526,13.533 C124.367333,13.6776674 124.162001,13.75 123.91,13.75 L120.116,13.75 L120.116,16.13 L123.28,16.13 C123.522668,16.13 123.725666,16.2069992 123.889,16.361 C124.052334,16.5150008 124.134,16.7133321 124.134,16.956 C124.134,17.1893345 124.054667,17.3783326 123.896,17.523 C123.737333,17.6676674 123.532001,17.74 123.28,17.74 L120.116,17.74 L120.116,20.33 L123.91,20.33 C124.152668,20.33 124.355666,20.4116658 124.519,20.575 Z M134.347,20.862 C134.417,20.9833339 134.452,21.1093327 134.452,21.24 C134.452,21.4080008 134.396001,21.5619993 134.284,21.702 C134.143999,21.8700008 133.929335,21.954 133.64,21.954 C133.415999,21.954 133.210668,21.9026672 133.024,21.8 C132.351997,21.4173314 132.016,20.6380059 132.016,19.462 C132.016,19.1259983 131.906334,18.860001 131.687,18.664 C131.467666,18.467999 131.152669,18.37 130.742,18.37 L128.124,18.37 L128.124,21.086 C128.124,21.3380013 128.056334,21.5433325 127.921,21.702 C127.785666,21.8606675 127.606001,21.94 127.382,21.94 C127.111332,21.94 126.875668,21.8583341 126.675,21.695 C126.474332,21.5316658 126.374,21.3286679 126.374,21.086 L126.374,12.994 C126.374,12.7513321 126.455666,12.5483341 126.619,12.385 C126.782334,12.2216658 126.985332,12.14 127.228,12.14 L131.26,12.14 C131.745336,12.14 132.202665,12.2706654 132.632,12.532 C133.061335,12.7933346 133.404332,13.1526644 133.661,13.61 C133.917668,14.0673356 134.046,14.5806638 134.046,15.15 C134.046,15.616669 133.920001,16.0716645 133.668,16.515 C133.415999,16.9583356 133.089335,17.3106654 132.688,17.572 C133.276003,17.9826687 133.598,18.5333299 133.654,19.224 C133.682,19.3733341 133.696,19.5179993 133.696,19.658 C133.733334,19.9473348 133.770666,20.1549994 133.808,20.281 C133.845334,20.4070006 133.929333,20.5026663 134.06,20.568 C134.181334,20.642667 134.277,20.7406661 134.347,20.862 Z M131.68,16.69 C131.838667,16.5313325 131.969333,16.3190013 132.072,16.053 C132.174667,15.7869987 132.226,15.5000015 132.226,15.192 C132.226,14.9306654 132.174667,14.6903344 132.072,14.471 C131.969333,14.2516656 131.838667,14.0766673 131.68,13.946 C131.521333,13.8153327 131.358001,13.75 131.19,13.75 L128.124,13.75 L128.124,16.928 L131.19,16.928 C131.358001,16.928 131.521333,16.8486675 131.68,16.69 Z" id="TomoMaster" fill="#FFFFFF"></path>
                <g id="Group" fill="#678BE0">
                    <path d="M29.4060369,19.6948616 C29.5012153,19.2536171 29.1605656,18.837414 28.7078459,18.837414 L28.4932344,18.837414 C28.1647121,18.837414 27.8757121,19.0625695 27.8054382,19.3824933 C26.7482981,24.1938711 22.5219032,27.8657632 17.4339223,28.0720298 C9.59757197,28.3897949 3.44606242,20.5524171 6.83880764,12.3940362 C7.86790318,9.91959175 9.85138089,7.94521714 12.3346803,6.92122349 C17.9496611,4.60587746 23.4113172,6.76762984 26.1823172,10.8761251 C26.3953045,11.1921632 26.8222535,11.2811029 27.1457949,11.0787219 L27.2719414,10.9997124 C27.6384701,10.7704552 27.7438268,10.283014 27.5008459,9.92606794 C24.4537312,5.45102032 18.6141771,3.01143937 12.4981834,5.11846794 C9.04415159,6.30836 6.32209427,8.96813143 5.08650828,12.3964108 C1.87134268,21.3181187 8.45846369,29.703814 16.9736229,29.703814 C23.0678522,29.703814 28.1738076,25.4081568 29.4060369,19.6948616" id="Fill-1"></path>
                    <g id="Group-5" transform="translate(0.000000, 0.055263)">
                        <path d="M16.1943624,0.0702019048 C7.46643248,0.461471746 0.401903822,7.51253206 0.0168592357,16.213186 C-0.0680324841,18.1317575 0.170833758,19.9841638 0.6817,21.7218337 C0.820298726,22.1925448 1.35574459,22.4224495 1.80012675,22.2120813 C1.80521592,22.2095987 1.81019682,22.2072241 1.81528599,22.2048495 C2.17520955,22.0345257 2.35408854,21.6298717 2.24212675,21.2485321 C1.78875732,19.7028813 1.57111401,18.057821 1.64019682,16.3527479 C1.95951529,8.45708444 8.36656624,2.03658921 16.2861841,1.69022095 C25.0592669,1.30650667 32.319458,8.31018286 32.319458,16.9724114 C32.319458,25.4073257 25.4353242,32.2696051 16.9735471,32.2696051 C15.8362796,32.2696051 14.7279229,32.1447225 13.6607127,31.909421 C13.372579,31.8459543 13.0740503,31.9555098 12.8909484,32.1860622 C12.512942,32.6620622 12.760579,33.374767 13.355579,33.5041829 C14.7139548,33.799713 16.1324261,33.9330146 17.5898783,33.8810971 C26.3889484,33.5672178 33.553528,26.4822654 33.9311013,17.7136114 C34.3584834,7.7882019 26.1556045,-0.376331429 16.1943624,0.0702019048" id="Fill-3"></path>
                    </g>
                    <path d="M24.9546032,16.4955587 L21.2309535,12.7838381 C21.0884567,12.6415778 20.898858,12.5632159 20.6971318,12.5632159 C20.4952975,12.5632159 20.3056987,12.6415778 20.1633102,12.7837302 L13.2499408,19.6750444 L10.5940427,17.0276857 L13.2499408,14.380219 L14.8706796,15.9958127 C15.1647688,16.2892921 15.6439089,16.2891841 15.9383229,15.9957048 C16.2327369,15.7023333 16.2327369,15.2249302 15.9383229,14.9315587 L13.7838707,12.7838381 C13.6413739,12.6415778 13.4517752,12.5632159 13.2499408,12.5632159 C13.0482146,12.5632159 12.8586159,12.6415778 12.7162274,12.7837302 L8.99246943,16.4955587 C8.84997261,16.6376032 8.77136115,16.8266 8.77136115,17.0276857 C8.77136115,17.2286635 8.84997261,17.4176603 8.99246943,17.5597048 L12.7161191,21.2714254 C12.8586159,21.4135778 13.0482146,21.4919397 13.2499408,21.4919397 C13.4517752,21.4919397 13.6413739,21.4135778 13.7837624,21.2715333 L20.6971318,14.380219 L23.3530299,17.0276857 L20.6971318,19.6750444 L19.0765013,18.0595587 C18.9337879,17.9174063 18.7442975,17.8390444 18.5425713,17.8390444 C18.3409535,17.8390444 18.1513548,17.9174063 18.008858,18.0594508 C17.8661446,18.2017111 17.7876414,18.3907079 17.7876414,18.5916857 C17.7876414,18.7926635 17.8661446,18.9816603 18.008858,19.1238127 L20.1633102,21.2715333 C20.305807,21.4135778 20.4954057,21.4919397 20.6971318,21.4919397 C20.898858,21.4919397 21.0884567,21.4135778 21.2308452,21.2715333 L24.9544949,17.5598127 C25.0972083,17.4177683 25.1758197,17.2287714 25.1758197,17.0276857 C25.1758197,16.8266 25.0972083,16.6376032 24.9546032,16.4955587" id="Fill-6"></path>
                </g>
            </g>
        </g>
    </g>
</svg>