<?xml version="1.0" encoding="utf-8"?>
<!-- Generator: Adobe Illustrator 24.0.1, SVG Export Plug-In . SVG Version: 6.00 Build 0)  -->
<svg version="1.1" id="Laag_1" xmlns="http://www.w3.org/2000/svg" xmlns:xlink="http://www.w3.org/1999/xlink" x="0px" y="0px"
	 viewBox="0 0 135 34" style="enable-background:new 0 0 135 34;" xml:space="preserve">
<style type="text/css">
	.st0{clip-path:url(#SVGID_2_);fill:#CA4280;}
	.st1{fill:#64FFFF;}
	.st2{font-family:'Audiowide-Regular';}
	.st3{font-size:13.0551px;}
</style>
<title>Asset 47</title>
<g>
	<defs>
		<path id="SVGID_1_" d="M8.5,15.7l1.4,0.8l1.4-0.8l-1.4-0.8L8.5,15.7z M9.5,18.9v-1.6L8,16.5v1.6L9.5,18.9z M11.3,7.8L9.9,7
			L8.5,7.8l1.4,0.8L11.3,7.8z M10.3,11l1.4-0.8V8.6l-1.4,0.8V11z M8,10.2L9.5,11V9.4L8,8.6V10.2z M10.3,26.8l1.4-0.8v-1.6l-1.4,0.8
			V26.8z M8,24.4V26l1.4,0.8v-1.6L8,24.4z M9.9,22.8l-1.4,0.8l1.4,0.8l1.4-0.8L9.9,22.8z M17.1,22.9l1.4-0.8v-1.6l-1.4,0.8V22.9z
			 M14.9,20.4V22l1.4,0.8v-1.6L14.9,20.4z M16.7,18.9l-1.4,0.8l1.4,0.8l1.4-0.8L16.7,18.9z M3.4,22.9L4.9,22v-1.6l-1.4,0.8V22.9z
			 M1.2,20.4V22l1.4,0.8v-1.6L1.2,20.4z M3,18.9l-1.4,0.8L3,20.5l1.4-0.8L3,18.9z M5.3,14.9l-1.8,1.1v2.2l2,1.2
			c0.1,0.1,0.2,0.2,0.2,0.4V22l1.9,1.1l1.8-1.1v-2.2l-2-1.2c-0.1-0.1-0.2-0.2-0.2-0.4V16L5.3,14.9z M3.4,15l1.4-0.8v-1.6l-1.4,0.8
			V15z M1.2,12.5v1.6L2.6,15v-1.6L1.2,12.5z M3,11l-1.4,0.8L3,12.6l1.4-0.8L3,11z M14,14.1V12l-1.9-1.1l-2,1.2
			c-0.1,0-0.2,0.1-0.2,0.1c-0.1,0-0.2,0-0.2-0.1l-2-1.2L5.7,12v2.1l1.9,1.1l2-1.2c0.1-0.1,0.3-0.1,0.4,0l2,1.2L14,14.1z M16.3,15.9
			l-1.8-1.1L12.6,16v2.4h0c0,0.1-0.1,0.3-0.2,0.4l-2,1.2v2.2l1.8,1.1L14,22v-2.4h0c0-0.1,0-0.1,0.1-0.2c0-0.1,0.1-0.1,0.2-0.2l2-1.2
			V15.9z M14.5,11.3l2-1.2c0.1-0.1,0.3-0.1,0.4,0l2.2,1.3c0.1,0.1,0.2,0.2,0.2,0.4v2.6h0c0,0.1-0.1,0.3-0.2,0.4l-2,1.2v2.2l2,1.2
			c0.1,0.1,0.2,0.2,0.2,0.4v2.6h0c0,0.1-0.1,0.3-0.2,0.4L17,23.9c-0.1,0-0.1,0.1-0.2,0.1c-0.1,0-0.2,0-0.2-0.1l-2-1.2l-1.9,1.1v2.4
			h0c0,0.1-0.1,0.3-0.2,0.4l-2.2,1.3C10,27.9,10,28,9.9,28c-0.1,0-0.2,0-0.2-0.1l-2.2-1.3c-0.1-0.1-0.2-0.2-0.2-0.4v-2.4l-1.9-1.1
			l-2,1.2C3.2,24,3.1,24,3,24c-0.1,0-0.2,0-0.2-0.1l-2.2-1.3c-0.1-0.1-0.2-0.2-0.2-0.4v-2.6h0c0-0.1,0-0.1,0.1-0.2
			c0-0.1,0.1-0.1,0.2-0.2l2-1.2v-2.2l-2-1.2c-0.1-0.1-0.2-0.2-0.2-0.4v-2.6h0v0l0,0c0,0,0-0.1,0-0.1l0,0l0,0l0,0l0,0l0,0l0,0l0,0
			l0,0l0,0c0-0.1,0.1-0.1,0.1-0.1l0,0l0,0l0,0l0,0l0,0l0,0l0,0l0,0l0,0l0,0l0,0l0,0l0,0l0,0l0,0l0,0l0,0l0,0l0,0l0,0l2.2-1.3
			c0.1-0.1,0.3-0.1,0.4,0l2,1.2l1.9-1.1V7.8c0-0.2,0.1-0.3,0.2-0.4l2.2-1.3c0.1-0.1,0.3-0.1,0.4,0l2.2,1.3c0,0,0.1,0,0.1,0.1l0,0
			l0,0l0,0l0,0l0,0l0,0l0,0l0,0l0,0l0,0l0,0c0,0,0,0,0,0l0,0c0,0,0,0,0,0l0,0c0,0,0,0,0,0l0,0l0,0l0,0l0,0l0,0c0,0,0,0.1,0,0.1l0,0
			l0,0v0v0h0v2.4L14.5,11.3z M17.1,15l1.4-0.8v-1.6l-1.4,0.8V15z M14.9,12.5v1.6l1.4,0.8v-1.6L14.9,12.5z M16.7,11l-1.4,0.8l1.4,0.8
			l1.4-0.8L16.7,11z M10.3,17.3v1.6l1.4-0.8v-1.6L10.3,17.3z"/>
	</defs>
	<use xlink:href="#SVGID_1_"  style="overflow:visible;fill:#CA4280;"/>
	<clipPath id="SVGID_2_">
		<use xlink:href="#SVGID_1_"  style="overflow:visible;"/>
	</clipPath>
	<rect x="0.4" y="6.1" class="st0" width="19" height="21.9"/>
</g>
<text transform="matrix(0.7966 0 0 1 23.391 22.0116)" class="st1 st2 st3">SMART DEX CHAIN</text>
</svg>
