<?xml version="1.0" encoding="UTF-8"?>
<svg width="135px" height="34px" xmlns="http://www.w3.org/2000/svg" viewBox="0 0 2430.73 450">
    <defs>
        <style>
            .cls-1 {
                fill: #fff;
            }

            .cls-2 {
                fill: #00e8b5;
            }
        </style>
    </defs>
    <title>Asset 47</title>
    <g id="Layer_2" data-name="Layer 2">
        <g id="Layer_1-2" data-name="Layer 1">
            <path class="cls-1" d="M909,332V176H849.35v-34.3h161.46V176H951.14V332Z" />
            <path class="cls-1"
                d="M1034.84,325.7a59.58,59.58,0,0,1-24.57-24q-8.65-15.53-8.64-36.59t8.64-36.58a58.8,58.8,0,0,1,24.57-23.9q15.93-8.35,37-8.36t37,8.36a58.92,58.92,0,0,1,24.57,23.9Q1142,244,1142,265.08t-8.64,36.59a59.7,59.7,0,0,1-24.57,24q-15.94,8.51-37,8.5T1034.84,325.7Zm66.69-60.62q0-19.15-7.7-28.62t-22-9.45q-29.71,0-29.7,38.07t29.7,38.07Q1101.53,303.15,1101.53,265.08Z" />
            <path class="cls-1"
                d="M1364,210Q1375,223.77,1375,252.12V332h-40.77V253.47q0-13.49-4.19-19.44t-14.17-5.94q-11.61,0-18.09,8.1t-6.48,22.68V332h-40.77V253.47q0-13.49-4.19-19.44t-14.17-5.94q-11.61,0-18.09,8.1t-6.48,22.68V332h-40.77V199.47h39.69v17.82a41.51,41.51,0,0,1,16.6-15.66,51.2,51.2,0,0,1,23.9-5.39q29.42,0,39.42,24.56a47.41,47.41,0,0,1,18.09-18,50.87,50.87,0,0,1,25.65-6.61Q1352.9,196.24,1364,210Z" />
            <path class="cls-1"
                d="M1432.54,325.7a59.56,59.56,0,0,1-24.56-24q-8.65-15.53-8.65-36.59T1408,228.5a58.78,58.78,0,0,1,24.56-23.9q15.93-8.35,37-8.36t37,8.36a59,59,0,0,1,24.57,23.9q8.63,15.52,8.63,36.58t-8.63,36.59a59.76,59.76,0,0,1-24.57,24q-15.94,8.51-37,8.5T1432.54,325.7Zm66.69-60.62q0-19.15-7.69-28.62t-22-9.45q-29.7,0-29.7,38.07t29.7,38.07Q1499.23,303.15,1499.23,265.08Z" />
            <path class="cls-1"
                d="M1724.15,141.69h32.67V332h-37V219.18l-43.74,81.54h-27l-43.74-80.46V332h-37V141.69h33.21l61.29,116.37Z" />
            <path class="cls-1"
                d="M1926.1,199.47V332h-40.5V312.33a41.45,41.45,0,0,1-16.87,16.07,51.88,51.88,0,0,1-24.71,5.8q-17.28,0-30.51-8.37t-20.65-23.89q-7.44-15.53-7.43-36.05t7.43-36.31q7.42-15.79,20.79-24.57a54.08,54.08,0,0,1,30.37-8.77,51.88,51.88,0,0,1,24.71,5.8,41.56,41.56,0,0,1,16.87,16.06V199.47Zm-48.19,94q7.69-9.72,7.69-28.08t-7.69-28.21q-7.7-9.85-22-9.86t-22.14,10.13q-7.83,10.13-7.83,28.48,0,18.11,7.83,27.68t22.14,9.58Q1870.21,303.15,1877.91,293.43Z" />
            <path class="cls-1"
                d="M1974.84,330a83.06,83.06,0,0,1-26.33-12l10.8-28.08a90.39,90.39,0,0,0,23.76,11.34,87.34,87.34,0,0,0,26.19,4.05q9.45,0,14.72-3.1t5.26-8.51a8.88,8.88,0,0,0-3.64-7.56q-3.64-2.68-13.64-4.86l-21.6-4.86q-19.17-4.31-28.21-13.36t-9.05-24.71a35.17,35.17,0,0,1,7.16-21.86q7.14-9.45,20.25-14.86t29.83-5.39a91,91,0,0,1,27.81,4.31,86,86,0,0,1,24.3,12.15l-10.8,27q-21.06-14.56-41.58-14.58-9.45,0-14.85,3.24a10.18,10.18,0,0,0-5.4,9.18,8,8,0,0,0,3.24,6.75c2.16,1.62,5.94,3.16,11.34,4.59l22.41,5.13q20.25,4.61,29.57,13.91t9.31,25.24q0,19.18-15.25,30.11t-42,10.93A126.77,126.77,0,0,1,1974.84,330Z" />
            <path class="cls-1"
                d="M2174,303.42l-2.16,29.7a114.48,114.48,0,0,1-15.66,1.08q-30.24,0-44.14-13.23t-13.91-40.23V230H2073V199.47h25.11V160.59h40.77v38.88h33.21V230h-33.21v50.48q0,23.77,22.14,23.77A108.94,108.94,0,0,0,2174,303.42Z" />
            <path class="cls-1"
                d="M2311.39,273.45H2225q1.89,15.94,10.4,23.09t24.16,7.15a64.13,64.13,0,0,0,20.39-3.37,65.63,65.63,0,0,0,18.49-9.58l10.8,27.26a73.36,73.36,0,0,1-23.62,11.88,93.8,93.8,0,0,1-28,4.32q-33.48,0-52.78-18.49t-19.31-50.36q0-20.25,8.37-35.91A61.41,61.41,0,0,1,2217.16,205q14.85-8.77,33.75-8.77,27.81,0,44.15,18.08t16.33,49.14Zm-77.89-41.71q-6.89,7.42-8.51,21.46h52.11q-.81-14.31-7.15-21.6t-18-7.29Q2240.38,224.31,2233.5,231.74Z" />
            <path class="cls-1"
                d="M2430.73,229.71l-22.95,2.43q-17,1.62-24,9.59t-7,21.19V332H2336V199.47h39.15v22.41q10-22.93,41.31-25.11l11.88-.81Z" />
            <path class="cls-1"
                d="M450,0,337.5,112.5,225,0,0,225,225,450,337.5,337.5,450,450,675,225ZM225,337.5,112.5,225,225,112.5l56.25,56.25L225,225l56.25,56.25Zm168.75-56.25L450,225l-56.25-56.25L450,112.5,562.5,225,450,337.5Z" />
            <polygon class="cls-2" points="562.5 225 675 225 450 450 450 337.5 562.5 225" />
        </g>
    </g>
</svg>