<svg width="203" height="28" viewBox="0 0 203 28" fill="none" xmlns="http://www.w3.org/2000/svg">
<path d="M26.5092 12.2851V1.26422C22.4751 2.302 18.2453 2.85304 13.8868 2.85304C9.52836 2.85304 5.29862 2.30073 1.26453 1.26422V12.2851C5.29862 13.3216 9.52836 13.8739 13.8868 13.8739C18.2453 13.8739 22.4751 13.3228 26.5092 12.2851Z" fill="#E0DED8"/>
<path d="M1.26453 15.7149V26.7357C5.29862 25.698 9.52836 25.1469 13.8868 25.1469C18.2453 25.1469 22.4751 25.6992 26.5092 26.7357V15.7149C22.4751 14.6784 18.2453 14.1261 13.8868 14.1261C9.52836 14.1261 5.29862 14.6771 1.26453 15.7149Z" fill="#E0DED8"/>
<path d="M80.5795 3.4505C74.5913 3.4505 70.845 8.05044 70.845 14.0706V14.0713C70.845 20.1766 74.9036 24.5778 80.6079 24.5778C83.4175 24.5778 85.3754 23.7264 86.7664 22.4198C88.1282 21.1424 88.8947 19.4097 89.0082 17.6211H84.978C84.7225 19.7506 83.0193 21.1992 80.6071 21.1992C77.2015 21.1992 75.0448 18.1039 75.0448 14.0713C75.0448 10.0387 76.8324 6.91504 80.5788 6.91504C82.9633 6.91504 84.4954 8.25002 84.8644 10.2943H88.9514C88.5256 6.43218 85.5741 3.4505 80.5795 3.4505Z" fill="#E0DED8"/>
<path d="M46.6384 3.84817H50.9517L54.5277 15.6044C54.9251 16.9394 55.4077 18.8417 55.4077 18.8417H55.4645C55.4645 18.8417 55.9471 16.911 56.3445 15.6044L59.8921 3.84817H64.0642L57.2245 24.1517H53.4781L46.6384 3.84817Z" fill="#E0DED8"/>
<path d="M69.2001 3.84817H65.0847V24.1517H69.2001V3.84817Z" fill="#E0DED8"/>
<path d="M142.743 24.5778C139.998 24.5778 137.869 24.0004 136.354 22.8456C134.84 21.6718 134.044 20.0059 133.969 17.8477H138.001C138.134 19.0593 138.56 19.9302 139.279 20.4602C140.017 20.9903 141.115 21.2553 142.573 21.2553C143.728 21.2553 144.674 21.0471 145.413 20.6306C146.151 20.1952 146.52 19.5326 146.52 18.6429C146.52 18.321 146.473 18.037 146.378 17.7909C146.302 17.5259 146.132 17.2987 145.867 17.1094C145.602 16.9011 145.375 16.7402 145.185 16.6267C144.996 16.4941 144.646 16.3616 144.135 16.2291C143.624 16.0776 143.236 15.9735 142.971 15.9167C142.705 15.841 142.213 15.718 141.494 15.5475C140.623 15.3393 139.904 15.1595 139.336 15.008C138.787 14.8566 138.171 14.62 137.49 14.2981C136.827 13.9763 136.297 13.626 135.9 13.2474C135.521 12.8498 135.199 12.3387 134.934 11.714C134.669 11.0703 134.537 10.3415 134.537 9.52744C134.537 7.57753 135.247 6.08196 136.666 5.04075C138.105 3.98058 139.989 3.4505 142.317 3.4505C144.627 3.4505 146.473 3.99953 147.855 5.09753C149.237 6.19554 150.003 7.75733 150.155 9.78298H146.208C146.094 8.79855 145.678 8.04132 144.958 7.51124C144.258 6.98116 143.368 6.71612 142.289 6.71612C141.172 6.71612 140.282 6.93387 139.62 7.36927C138.957 7.80468 138.626 8.3821 138.626 9.10149C138.626 9.87766 138.948 10.4456 139.591 10.8053C140.254 11.165 141.409 11.5247 143.056 11.8844C144.04 12.0926 144.845 12.2914 145.469 12.4807C146.094 12.6511 146.766 12.9066 147.486 13.2474C148.224 13.5692 148.792 13.929 149.189 14.3265C149.606 14.7241 149.947 15.2541 150.212 15.9167C150.496 16.5604 150.638 17.3081 150.638 18.1601C150.638 20.1668 149.909 21.7381 148.451 22.874C146.993 24.0099 145.091 24.5778 142.743 24.5778Z" fill="#E0DED8"/>
<path d="M150.945 3.81967V7.28409H157.05V24.1234H161.168V7.28409H167.273V3.81967H150.945Z" fill="#E0DED8"/>
<path d="M168.734 24.1234V3.81967H183.671V7.28409H172.851V11.8276H182.336V15.2068H172.851V20.6874H183.756V24.1234H168.734Z" fill="#E0DED8"/>
<path fill-rule="evenodd" clip-rule="evenodd" d="M185.581 24.1234V3.81967H194.895C196.845 3.81967 198.417 4.34025 199.609 5.38147C200.821 6.42268 201.427 7.78573 201.427 9.47066C201.427 12.0642 200.187 13.7018 197.707 14.3833V14.4685C198.672 14.7525 199.392 15.2068 199.865 15.8315C200.357 16.4373 200.669 17.346 200.802 18.5576C200.84 19.012 200.878 19.5515 200.916 20.1763C200.972 20.7821 201.01 21.2648 201.029 21.6245L201.143 22.7036C201.2 23.0633 201.266 23.3472 201.342 23.5555C201.436 23.7448 201.55 23.8678 201.682 23.9246V24.1234H197.735C197.659 24.0856 197.593 24.0193 197.536 23.9246C197.48 23.811 197.432 23.6596 197.394 23.4703L197.281 22.9023C197.27 22.7796 197.255 22.6404 197.237 22.4847C197.225 22.3764 197.211 22.26 197.196 22.1356C197.185 21.9533 197.174 21.7861 197.163 21.6341C197.155 21.5179 197.147 21.4106 197.139 21.3122C197.12 21.066 197.091 20.7537 197.054 20.375C197.035 19.9775 197.016 19.6651 196.997 19.4379C196.826 17.1283 195.501 15.9735 193.021 15.9735H189.699V24.1234H185.581ZM189.699 7.14207V12.7931H194.072C195.151 12.7931 195.975 12.5375 196.542 12.0263C197.129 11.5152 197.423 10.8431 197.423 10.0102C197.423 9.15827 197.148 8.46728 196.599 7.9372C196.05 7.40711 195.246 7.14207 194.186 7.14207H189.699Z" fill="#E0DED8"/>
<path fill-rule="evenodd" clip-rule="evenodd" d="M122.939 3.81967L115.868 24.1234H120.043L121.377 19.8071H128.704L130.067 24.1234H134.355L127.199 3.81967H122.939ZM122.343 16.655L124.16 10.8053C124.387 10.0859 124.671 9.0447 125.012 7.68166H125.069L125.892 10.8053L127.71 16.655H122.343Z" fill="#E0DED8"/>
<path d="M94.8101 24.1234V3.81967H100.603L103.471 14.0141C103.679 14.7714 103.888 15.6138 104.096 16.5415C104.323 17.4502 104.493 18.1696 104.607 18.6996L104.749 19.4947H104.806C105.165 17.5448 105.582 15.718 106.055 14.0141L108.923 3.81967H114.802V24.1234H110.968V12.4807L111.138 8.27797H111.082C110.779 9.86822 110.485 11.1555 110.201 12.14L106.708 24.1234H102.761L99.3536 12.14L98.4733 8.27797H98.4165C98.5301 9.98179 98.5869 11.3827 98.5869 12.4807V24.1234H94.8101Z" fill="#E0DED8"/>
</svg>
