<svg width="232" height="32" viewBox="0 0 232 32" fill="none" xmlns="http://www.w3.org/2000/svg">
<path d="M30.2962 14.0401V1.44482C25.6858 2.63085 20.8518 3.26061 15.8707 3.26061C10.8896 3.26061 6.05558 2.62941 1.44519 1.44482V14.0401C6.05558 15.2247 10.8896 15.8559 15.8707 15.8559C20.8518 15.8559 25.6858 15.2261 30.2962 14.0401Z" fill="#1E1E1E"/>
<path d="M1.44519 17.9599V30.5551C6.05558 29.3691 10.8896 28.7393 15.8707 28.7393C20.8518 28.7393 25.6858 29.3705 30.2962 30.5551V17.9599C25.6858 16.7753 20.8518 16.1441 15.8707 16.1441C10.8896 16.1441 6.05558 16.7738 1.44519 17.9599Z" fill="#1E1E1E"/>
<path d="M92.0909 3.94342C85.2473 3.94342 80.9658 9.20049 80.9658 16.0807V16.0815C80.9658 23.059 85.6042 28.0889 92.1233 28.0889C95.3343 28.0889 97.5719 27.1159 99.1616 25.6227C100.718 24.1627 101.594 22.1826 101.724 20.1384H97.1178C96.8258 22.5721 94.8792 24.2276 92.1225 24.2276C88.2303 24.2276 85.7655 20.6902 85.7655 16.0815C85.7655 11.4728 87.8085 7.90289 92.09 7.90289C94.8152 7.90289 96.5662 9.42858 96.988 11.7649H101.659C101.172 7.35106 97.799 3.94342 92.0909 3.94342Z" fill="#1E1E1E"/>
<path d="M53.301 4.3979H58.2305L62.3174 17.8336C62.7716 19.3593 63.3231 21.5333 63.3231 21.5333H63.388C63.388 21.5333 63.9395 19.3268 64.3937 17.8336L68.4482 4.3979H73.2163L65.3994 27.6019H61.1179L53.301 4.3979Z" fill="#1E1E1E"/>
<path d="M79.0858 4.3979H74.3825V27.6019H79.0858V4.3979Z" fill="#1E1E1E"/>
<path d="M163.135 28.0889C159.998 28.0889 157.564 27.429 155.833 26.1092C154.102 24.7678 153.194 22.8639 153.107 20.3974H157.716C157.867 21.7821 158.354 22.7773 159.176 23.3831C160.02 23.9889 161.275 24.2918 162.941 24.2918C164.26 24.2918 165.342 24.0538 166.186 23.5778C167.03 23.0802 167.452 22.323 167.452 21.3061C167.452 20.9382 167.398 20.6137 167.289 20.3325C167.203 20.0296 167.008 19.7699 166.705 19.5536C166.402 19.3156 166.143 19.1317 165.926 19.0019C165.71 18.8504 165.31 18.699 164.726 18.5475C164.141 18.3744 163.698 18.2554 163.395 18.1905C163.092 18.104 162.529 17.9634 161.707 17.7686C160.712 17.5307 159.89 17.3251 159.241 17.152C158.613 16.979 157.91 16.7085 157.131 16.3407C156.374 15.9729 155.768 15.5726 155.314 15.1399C154.881 14.6855 154.513 14.1014 154.211 13.3874C153.908 12.6518 153.756 11.8188 153.756 10.8885C153.756 8.66002 154.568 6.95081 156.19 5.76084C157.835 4.54923 159.987 3.94342 162.648 3.94342C165.288 3.94342 167.398 4.57088 168.977 5.82574C170.556 7.0806 171.433 8.86552 171.606 11.1805H167.095C166.965 10.0555 166.489 9.19007 165.667 8.58427C164.866 7.97846 163.849 7.67555 162.616 7.67555C161.34 7.67555 160.323 7.92442 159.565 8.42202C158.808 8.91962 158.43 9.57953 158.43 10.4017C158.43 11.2887 158.797 11.9378 159.533 12.3489C160.29 12.76 161.61 13.1711 163.492 13.5821C164.617 13.8201 165.537 14.0473 166.251 14.2637C166.965 14.4584 167.733 14.7504 168.555 15.1399C169.399 15.5077 170.048 15.9188 170.502 16.3732C170.978 16.8275 171.368 17.4333 171.671 18.1905C171.995 18.9261 172.157 19.7807 172.157 20.7543C172.157 23.0478 171.324 24.8435 169.658 26.1417C167.992 27.4398 165.818 28.0889 163.135 28.0889Z" fill="#1E1E1E"/>
<path d="M172.508 4.36533V8.32467H179.486V27.5696H184.192V8.32467H191.169V4.36533H172.508Z" fill="#1E1E1E"/>
<path d="M192.839 27.5696V4.36533H209.909V8.32467H197.545V13.5172H208.384V17.3792H197.545V23.6427H210.007V27.5696H192.839Z" fill="#1E1E1E"/>
<path fill-rule="evenodd" clip-rule="evenodd" d="M212.093 27.5696V4.36533H222.738C224.966 4.36533 226.762 4.96028 228.125 6.15024C229.51 7.3402 230.202 8.89797 230.202 10.8236C230.202 13.7877 228.785 15.6591 225.951 16.4381V16.5354C227.054 16.86 227.876 17.3792 228.417 18.0932C228.98 18.7855 229.337 19.824 229.488 21.2087C229.531 21.728 229.575 22.3446 229.618 23.0586C229.683 23.7509 229.726 24.3026 229.748 24.7137L229.877 25.947C229.942 26.358 230.018 26.6826 230.105 26.9206C230.213 27.1369 230.343 27.2775 230.494 27.3424V27.5696H225.983C225.896 27.5264 225.821 27.4506 225.756 27.3424C225.691 27.2126 225.637 27.0396 225.594 26.8232L225.464 26.1741C225.451 26.0338 225.435 25.8747 225.414 25.6968C225.4 25.573 225.384 25.4399 225.366 25.2978C225.354 25.0894 225.342 24.8984 225.33 24.7247C225.32 24.5919 225.311 24.4692 225.302 24.3567C225.28 24.0754 225.247 23.7185 225.204 23.2857C225.183 22.8314 225.161 22.4744 225.139 22.2148C224.945 19.5752 223.43 18.2554 220.596 18.2554H216.799V27.5696H212.093ZM216.799 8.16236V14.6206H221.797C223.03 14.6206 223.971 14.3286 224.62 13.7444C225.291 13.1602 225.626 12.3922 225.626 11.4402C225.626 10.4666 225.312 9.67688 224.685 9.07107C224.057 8.46526 223.138 8.16236 221.926 8.16236H216.799Z" fill="#1E1E1E"/>
<path fill-rule="evenodd" clip-rule="evenodd" d="M140.502 4.36533L132.421 27.5696H137.192L138.717 22.6367H147.09L148.648 27.5696H153.548L145.37 4.36533H140.502ZM139.82 19.0343L141.897 12.3489C142.157 11.5268 142.482 10.3368 142.871 8.77903H142.936L143.877 12.3489L145.954 19.0343H139.82Z" fill="#1E1E1E"/>
<path d="M108.354 27.5696V4.36533H114.975L118.253 16.0161C118.491 16.8816 118.729 17.8444 118.967 18.9045C119.226 19.943 119.421 20.7652 119.551 21.371L119.713 22.2797H119.778C120.189 20.0512 120.665 17.9634 121.206 16.0161L124.484 4.36533H131.202V27.5696H126.821V14.2636L127.015 9.46053H126.95C126.604 11.278 126.269 12.7492 125.944 13.8742L121.952 27.5696H117.441L113.547 13.8742L112.541 9.46053H112.476C112.606 11.4078 112.671 13.0088 112.671 14.2636V27.5696H108.354Z" fill="#1E1E1E"/>
</svg>
