<?xml version="1.0" encoding="UTF-8"?>
<svg width="45px" height="45px" viewBox="0 0 45 45" version="1.1" xmlns="http://www.w3.org/2000/svg" xmlns:xlink="http://www.w3.org/1999/xlink">
    <!-- Generator: Sketch 46.2 (44496) - http://www.bohemiancoding.com/sketch -->
    <defs>
        <linearGradient x1="-59.8925888%" y1="-25.4106789%" x2="206.639379%" y2="100%" id="linearGradient-1">
            <stop stop-color="#7573a6" offset="0%"></stop>
            <stop stop-color="#7573a6" offset="100%"></stop>
        </linearGradient>
    </defs>
    <g stroke="none" stroke-width="1" fill="none" fill-rule="evenodd">
        <g id="Stick-menu-bar" transform="translate(-255.000000, -30.000000)">
            <g id="Page-1-Copy" transform="translate(255.000000, 30.000000)">
                <path d="M20.6303087,30.8920076 C21.5036974,31.2997961 22.4301678,31.5 23.3481578,31.5 C24.7473386,31.4998975 26.1266268,31.0348053 27.2673089,30.1294286 C27.4180737,30.0099008 27.5700948,29.8814546 27.7191844,29.7476778 C28.228539,29.2903765 28.2630893,28.5152912 27.7963467,28.0163704 C27.32929,27.5175522 26.5378796,27.4838261 26.0281063,27.9408199 C25.9161844,28.0411781 25.8030061,28.1369233 25.6913983,28.2254928 C24.542131,29.1377377 23.0529101,29.3078034 21.7072298,28.6800263 C20.3386207,28.0411781 19.5214547,26.7771156 19.5214547,25.2988052 L19.5214547,18.766295 L27.0148826,18.766295 C27.6196169,18.766295 28.1099165,18.2863387 28.1099165,17.694133 C28.1099165,17.1020297 27.6196169,16.6219709 27.0148826,16.6219709 L19.5214547,16.6219709 L19.5214547,14.7253134 C19.5214547,14.0486386 18.9611123,13.5 18.2701071,13.5 C17.5788926,13.5 17.0185502,14.0486386 17.0185502,14.7253134 L17.0185502,16.6219709 L14.9699291,16.6219709 C14.3650902,16.6219709 13.875,17.1020297 13.875,17.694133 C13.875,18.2863387 14.3650902,18.766295 14.9699291,18.766295 L17.0185502,18.766295 L17.0185502,25.2988052 C17.0185502,27.7091451 18.4025498,29.852239 20.6303087,30.8920076" id="Fill-1" fill="url(#linearGradient-1)"></path>
                <path d="M20.6303087,30.8920076 C21.5036974,31.2997961 22.4301678,31.5 23.3481578,31.5 C24.7473386,31.4998975 26.1266268,31.0348053 27.2673089,30.1294286 C27.4180737,30.0099008 27.5700948,29.8814546 27.7191844,29.7476778 C28.228539,29.2903765 28.2630893,28.5152912 27.7963467,28.0163704 C27.32929,27.5175522 26.5378796,27.4838261 26.0281063,27.9408199 C25.9161844,28.0411781 25.8030061,28.1369233 25.6913983,28.2254928 C24.542131,29.1377377 23.0529101,29.3078034 21.7072298,28.6800263 C20.3386207,28.0411781 19.5214547,26.7771156 19.5214547,25.2988052 L19.5214547,18.766295 L27.0148826,18.766295 C27.6196169,18.766295 28.1099165,18.2863387 28.1099165,17.694133 C28.1099165,17.1020297 27.6196169,16.6219709 27.0148826,16.6219709 L19.5214547,16.6219709 L19.5214547,14.7253134 C19.5214547,14.0486386 18.9611123,13.5 18.2701071,13.5 C17.5788926,13.5 17.0185502,14.0486386 17.0185502,14.7253134 L17.0185502,16.6219709 L14.9699291,16.6219709 C14.3650902,16.6219709 13.875,17.1020297 13.875,17.694133 C13.875,18.2863387 14.3650902,18.766295 14.9699291,18.766295 L17.0185502,18.766295 L17.0185502,25.2988052 C17.0185502,27.7091451 18.4025498,29.852239 20.6303087,30.8920076 Z" id="Stroke-3"></path>
                <path d="M38.6039709,25.8238072 C38.7287618,25.2429115 38.2821471,24.6949969 37.6883953,24.6949969 L37.4070801,24.6949969 C36.976179,24.6949969 36.5972146,24.991316 36.5049734,25.4126159 C35.1188045,31.7463088 29.5765776,36.580231 22.9043961,36.8518398 C12.6283794,37.2700765 4.56176389,26.9528217 9.01087128,16.2127353 C10.360307,12.9551654 12.9613252,10.3559916 16.2176232,9.00805626 C23.5808996,5.96011525 30.7428574,8.80598339 34.3764873,14.2143684 C34.6560679,14.6303587 35.2157394,14.7474772 35.6401101,14.481076 L35.8055116,14.3772315 C36.2862067,14.0753986 36.4243644,13.4336462 36.1057037,12.9638446 C32.1097414,7.07258819 24.4522932,3.86096714 16.4320024,6.63474662 C11.9027962,8.2012964 8.3330413,11.7028037 6.71300419,16.2157986 C2.49664258,27.9606334 11.1347657,39 22.3008488,39 C30.2924673,39 36.9881173,33.3449207 38.6039709,25.8238072" id="Fill-5" fill="url(#linearGradient-1)"></path>
                <path d="M38.6039709,25.8238072 C38.7287618,25.2429115 38.2821471,24.6949969 37.6883953,24.6949969 L37.4070801,24.6949969 C36.976179,24.6949969 36.5972146,24.991316 36.5049734,25.4126159 C35.1188045,31.7463088 29.5765776,36.580231 22.9043961,36.8518398 C12.6283794,37.2700765 4.56176389,26.9528217 9.01087128,16.2127353 C10.360307,12.9551654 12.9613252,10.3559916 16.2176232,9.00805626 C23.5808996,5.96011525 30.7428574,8.80598339 34.3764873,14.2143684 C34.6560679,14.6303587 35.2157394,14.7474772 35.6401101,14.481076 L35.8055116,14.3772315 C36.2862067,14.0753986 36.4243644,13.4336462 36.1057037,12.9638446 C32.1097414,7.07258819 24.4522932,3.86096714 16.4320024,6.63474662 C11.9027962,8.2012964 8.3330413,11.7028037 6.71300419,16.2157986 C2.49664258,27.9606334 11.1347657,39 22.3008488,39 C30.2924673,39 36.9881173,33.3449207 38.6039709,25.8238072 Z" id="Stroke-7"></path>
                <path d="M21.4672034,0.0232482524 C9.89741794,0.543515061 0.532791188,9.92017937 0.0223215568,21.4904429 C-0.0903138922,24.0417512 0.226344376,26.5050764 0.903807406,28.815849 C1.08730417,29.4418402 1.7970519,29.747564 2.38632509,29.4676266 C2.39302958,29.4644291 2.39973407,29.4613347 2.40633541,29.4582403 C2.88359203,29.2316293 3.12051843,28.6934151 2.97219446,28.1864541 C2.37116262,26.1308638 2.08266322,23.9434534 2.17415373,21.6758988 C2.59756813,11.1761843 11.0907142,2.63819753 21.5888125,2.17754892 C33.2184226,1.66728724 42.8425647,10.9808264 42.8425647,22.5000328 C42.8425647,33.716816 33.7169273,42.8424237 22.5000044,42.8424237 C20.9925254,42.8424237 19.5233136,42.6763592 18.1085628,42.3635183 C17.7267163,42.2789389 17.3308418,42.4246837 17.0882424,42.7312327 C16.5870559,43.3642377 16.9154728,44.3119402 17.7041273,44.4840904 C19.5047473,44.8771786 21.3850991,45.054486 23.317024,44.9853784 C34.981188,44.568051 44.4784606,35.146312 44.9788219,23.4855897 C45.5452998,10.286656 34.67175,-0.57045828 21.4672034,0.0232482524" id="Fill-9" fill="url(#linearGradient-1)"></path>
                <path d="M21.4672034,0.0232482524 C9.89741794,0.543515061 0.532791188,9.92017937 0.0223215568,21.4904429 C-0.0903138922,24.0417512 0.226344376,26.5050764 0.903807406,28.815849 C1.08730417,29.4418402 1.7970519,29.747564 2.38632509,29.4676266 C2.39302958,29.4644291 2.39973407,29.4613347 2.40633541,29.4582403 C2.88359203,29.2316293 3.12051843,28.6934151 2.97219446,28.1864541 C2.37116262,26.1308638 2.08266322,23.9434534 2.17415373,21.6758988 C2.59756813,11.1761843 11.0907142,2.63819753 21.5888125,2.17754892 C33.2184226,1.66728724 42.8425647,10.9808264 42.8425647,22.5000328 C42.8425647,33.716816 33.7169273,42.8424237 22.5000044,42.8424237 C20.9925254,42.8424237 19.5233136,42.6763592 18.1085628,42.3635183 C17.7267163,42.2789389 17.3308418,42.4246837 17.0882424,42.7312327 C16.5870559,43.3642377 16.9154728,44.3119402 17.7041273,44.4840904 C19.5047473,44.8771786 21.3850991,45.054486 23.317024,44.9853784 C34.981188,44.568051 44.4784606,35.146312 44.9788219,23.4855897 C45.5452998,10.286656 34.67175,-0.57045828 21.4672034,0.0232482524 Z" id="Stroke-11"></path>
            </g>
        </g>
    </g>
</svg>